<svg clip-rule="evenodd" fill-rule="evenodd" stroke-linejoin="round" stroke-miterlimit="2" viewBox="0 0 560 400" xmlns="http://www.w3.org/2000/svg"><path d="m13.41 15.778c1.56.902 2.34 1.352 3.197 1.353.857 0 1.637-.449 3.198-1.347l9.932-5.716c.449-.258.726-.737.726-1.255s-.277-.997-.726-1.255l-9.935-5.719c-1.56-.898-2.34-1.346-3.195-1.346-.856 0-1.636.45-3.194 1.349l-8.538 4.921c-.069.04-.104.06-.136.08-2.913 1.71-4.712 4.825-4.739 8.203v.314c.026 3.374 1.822 6.486 4.73 8.198l.137.08 5.338 3.086c3.124 1.805 4.686 2.708 6.402 2.709 1.715 0 3.278-.901 6.403-2.705l5.642-3.257c1.562-.901 2.343-1.352 2.772-2.095.429-.742.429-1.644.429-3.448v-3.494c-.001-.492-.263-.947-.689-1.193s-.951-.247-1.378-.002l-11.584 6.667c-.779.448-1.168.672-1.596.672-.427 0-.816-.223-1.595-.671l-7.838-4.505c-.394-.226-.59-.34-.749-.36-.36-.046-.706.155-.843.491-.06.148-.059.375-.056.83.001.333.002.5.034.654.07.343.25.654.513.884.118.104.263.187.552.354l8.382 4.844c.781.452 1.172.677 1.6.677.43 0 .82-.225 1.601-.676l10.274-5.93c.267-.154.4-.23.5-.173.1.058.1.212.1.52v1.583c0 .451 0 .676-.107.862s-.302.298-.693.524l-8.472 4.89c-1.563.902-2.344 1.353-3.202 1.352-.858 0-1.64-.452-3.201-1.355l-7.924-4.583-.056-.032c-1.66-.973-2.683-2.748-2.694-4.672v-1.52c0-1.063.565-2.045 1.484-2.579.814-.472 1.818-.473 2.632-.002l6.563 3.792zm39.774 6.93c-1.703 0-3.172-.312-4.405-.935-1.233-.637-2.182-1.517-2.847-2.64-.65-1.135-.976-2.437-.976-3.906 0-1.454.332-2.743.997-3.865.665-1.136 1.614-2.022 2.847-2.66 1.233-.637 2.701-.955 4.405-.955 1.552 0 2.86.228 3.928.685 1.08.458 1.904 1.081 2.472 1.87.582.776.908 1.656.977 2.64h-3.013c-.049-.314-.155-.617-.312-.894-.152-.319-.395-.61-.727-.873-.319-.263-.741-.478-1.268-.644-.512-.166-1.142-.25-1.89-.25h-.333c-1.039 0-1.953.195-2.743.583-.756.369-1.385.955-1.808 1.683-.43.734-.644 1.627-.644 2.68 0 1.04.215 1.933.644 2.68.434.726 1.069 1.311 1.829 1.684.79.388 1.697.582 2.722.582h.332c1.012 0 1.864-.132 2.556-.395.693-.277 1.22-.616 1.58-1.018s.54-.797.54-1.185v-.166h-4.78v-2.535h5.549c.637 0 1.122.173 1.454.52.346.346.52.838.52 1.475v5.631h-2.743v-1.62c-.18.235-.478.498-.894.789-.401.277-.928.52-1.579.727-.651.208-1.448.312-2.39.312zm9.833-.208v-14.545h2.868v14.545zm10.17 0v-12.01h-5.86v-2.535h14.587v2.535h-5.86v12.01zm10.165 0v-14.545h8.27c.873 0 1.655.159 2.348.477.693.305 1.24.742 1.642 1.31.401.567.602 1.253.602 2.057 0 .83-.228 1.53-.686 2.098-.457.568-.997.97-1.62 1.206.498.11.948.318 1.35.623s.72.693.956 1.164c.236.47.353 1.025.353 1.662 0 .803-.214 1.503-.644 2.099-.415.582-.976 1.039-1.683 1.371-.706.319-1.496.478-2.369.478zm2.867-2.535h5.237c.692 0 1.233-.16 1.62-.478.402-.332.603-.776.603-1.33 0-.596-.2-1.039-.603-1.33-.387-.29-.928-.436-1.62-.436h-5.237zm0-6.11h5.091c.638 0 1.13-.145 1.476-.436.36-.29.54-.727.54-1.309 0-.484-.18-.872-.54-1.163-.347-.305-.838-.457-1.476-.457h-5.09v3.366zm19.83 8.853c-1.565 0-2.971-.298-4.218-.894-1.247-.61-2.23-1.468-2.95-2.576-.72-1.122-1.081-2.46-1.081-4.01 0-1.552.36-2.882 1.08-3.99.72-1.122 1.704-1.981 2.951-2.577 1.247-.61 2.653-.914 4.218-.914 1.58 0 2.986.305 4.219.914 1.246.596 2.223 1.455 2.929 2.577.721 1.108 1.081 2.438 1.081 3.99 0 1.55-.36 2.888-1.081 4.01-.706 1.108-1.683 1.967-2.929 2.576-1.233.596-2.639.894-4.219.894zm-.166-2.535h.333c.942 0 1.8-.194 2.576-.582.775-.374 1.429-.957 1.891-1.683.471-.748.707-1.642.707-2.68 0-1.054-.236-1.947-.707-2.681-.462-.726-1.116-1.309-1.891-1.683-.776-.388-1.634-.582-2.576-.582h-.333c-.928 0-1.787.194-2.577.582-.778.378-1.438.959-1.911 1.683-.471.734-.707 1.627-.707 2.68 0 1.04.236 1.933.707 2.68.473.724 1.133 1.306 1.911 1.684.79.388 1.649.582 2.577.582zm17.72 2.535c-1.565 0-2.972-.298-4.218-.894-1.247-.61-2.231-1.468-2.951-2.576-.72-1.122-1.08-2.46-1.08-4.01 0-1.552.36-2.882 1.08-3.99.72-1.122 1.704-1.981 2.951-2.577 1.246-.61 2.653-.914 4.218-.914 1.579 0 2.985.305 4.218.914 1.247.596 2.223 1.455 2.93 2.577.72 1.108 1.08 2.438 1.08 3.99 0 1.55-.36 2.888-1.08 4.01-.707 1.108-1.683 1.967-2.93 2.576-1.233.596-2.639.894-4.218.894zm-.166-2.535h.332c.942 0 1.801-.194 2.577-.582.774-.375 1.429-.957 1.891-1.683.471-.748.706-1.642.706-2.68 0-1.054-.235-1.947-.706-2.681-.462-.726-1.117-1.308-1.891-1.683-.776-.388-1.635-.582-2.577-.582h-.332c-.928 0-1.787.194-2.577.582-.778.377-1.439.959-1.912 1.683-.471.734-.706 1.627-.706 2.68 0 1.04.235 1.933.706 2.68.473.724 1.134 1.306 1.912 1.684.79.388 1.649.582 2.577.582zm12.67-1.995-.831-2.618 8.893-7.605h3.969zm-2.306 4.322v-14.545h2.867v14.545zm10.888 0-6.566-7.231 2.493-1.392 7.855 8.623z" fill="#262930" fill-rule="nonzero" transform="matrix(3.10988 0 0 3.10988 49.1363 153.467)"/></svg>